<?xml version="1.0" standalone="no"?><!DOCTYPE svg PUBLIC "-//W3C//DTD SVG 1.1//EN" "http://www.w3.org/Graphics/SVG/1.1/DTD/svg11.dtd"><svg t="1552727017305" class="icon" style="" viewBox="0 0 1024 1024" version="1.1" xmlns="http://www.w3.org/2000/svg" p-id="2724" xmlns:xlink="http://www.w3.org/1999/xlink" width="200" height="200"><defs><style type="text/css"></style></defs><path d="M876.51 728.986q0 24.371-17.067 41.438l-82.91 82.91q-17.067 17.067-41.438 17.067t-41.438-17.067l-179.2-179.2-179.2 179.2q-17.067 17.067-41.438 17.067t-41.438-17.067l-82.91-82.91q-17.067-17.067-17.067-41.438t17.067-41.438l179.2-179.2-179.2-179.2q-17.067-17.067-17.067-41.438t17.067-41.438l82.91-82.91q17.067-17.067 41.438-17.067t41.438 17.067l179.2 179.2 179.2-179.2q17.067-17.067 41.438-17.067t41.438 17.067l82.91 82.91q17.067 17.067 17.067 41.438t-17.067 41.438l-179.2 179.2 179.2 179.2q17.067 17.067 17.067 41.438z" p-id="2725"></path></svg>