<?xml version="1.0" standalone="no"?><!DOCTYPE svg PUBLIC "-//W3C//DTD SVG 1.1//EN" "http://www.w3.org/Graphics/SVG/1.1/DTD/svg11.dtd"><svg t="1552465834913" class="icon" style="" viewBox="0 0 1024 1024" version="1.1" xmlns="http://www.w3.org/2000/svg" p-id="4741" xmlns:xlink="http://www.w3.org/1999/xlink" width="200" height="200"><defs><style type="text/css"></style></defs><path d="M531.2 596.821333l-334.336 416.597334c-5.717333 7.082667-12.202667 10.581333-19.626667 10.581333-7.338667 0-13.824-3.498667-19.541333-10.581333l-42.496-52.992a37.802667 37.802667 0 0 1-8.533333-24.405334c0-9.216 2.816-17.322667 8.533333-24.32l396.458667-494.08c5.632-6.997333 12.202667-10.581333 19.626666-10.581333 7.253333 0 13.824 3.584 19.456 10.666667l396.458667 493.909333c5.717333 7.082667 8.533333 15.189333 8.533333 24.405333a37.802667 37.802667 0 0 1-8.533333 24.405334l-42.496 52.906666c-5.632 7.168-12.202667 10.666667-19.626667 10.666667-7.338667 0-13.824-3.498667-19.541333-10.581333L531.2 596.821333z m0-407.04L196.864 606.208c-5.717333 7.082667-12.202667 10.581333-19.626667 10.581333-7.338667 0-13.824-3.413333-19.541333-10.581333l-42.496-52.906667a37.888 37.888 0 0 1-8.533333-24.405333c0-9.216 2.816-17.322667 8.533333-24.405333L511.658667 10.581333C517.290667 3.498667 523.861333 0 531.285333 0c7.253333 0 13.824 3.498667 19.456 10.581333L947.2 504.576c5.717333 7.082667 8.533333 15.189333 8.533333 24.405333a37.888 37.888 0 0 1-8.533333 24.32l-42.496 52.992c-5.632 7.082667-12.202667 10.581333-19.626667 10.581334-7.338667 0-13.824-3.413333-19.541333-10.581334L531.2 189.696z" fill="#444444" p-id="4742"></path></svg>